<?xml version="1.0" encoding="utf-8"?>
<!-- Generator: Adobe Illustrator 24.0.0, SVG Export Plug-In . SVG Version: 6.00 Build 0)  -->
<svg version="1.1" id="图层_1" xmlns="http://www.w3.org/2000/svg" xmlns:xlink="http://www.w3.org/1999/xlink" x="0px" y="0px"
	 viewBox="0 0 499.4 492.4" style="enable-background:new 0 0 499.4 492.4;" xml:space="preserve">
<g>
	<path d="M25.7,9.2c14.8-1.1,29.7-0.4,44.6-0.5c133.3,0,266.7,0.1,400-0.1c5.5,0.1,11.8,0.2,16.5,3.5c5.1,5.8,2.8,14.5,3.7,21.5
		c-0.4,6.9,1.3,15.6-4.2,21c-4.4,4.5-11.3,3.7-17,4c-135,0-270,0-405,0c-13.4-0.2-26.9,0.8-40.3-0.8c-4.6-0.8-7.7-4.9-8.3-9.4
		c-0.9-10.2-1-20.5-0.1-30.7C16.3,12.7,20.7,9.2,25.7,9.2z"/>
	<path d="M56.1,111.5c3.7-4.4,10.2-3.4,15.2-3.8c120,0,240,0,360.1,0c5.2,0.3,13-0.7,16,5c2.7,8.7,1.8,18,2.1,27
		c-0.3,56.7,0.2,113.3-0.2,170c0.1,6.4-3.9,13.3-10.5,14.3c-12.5,1.3-25.2,0.6-37.7,0.6c-3.7,8.4-5.7,17.4-8.5,26.1
		c-6.9,22.2-13.3,44.7-20.3,66.9c-2,6-3.2,12.2-4.3,18.4c35.5,1.7,71,0,106.5,0.8c5.7-0.4,13.4,1.4,15.1,7.8
		c1.5,8.9,1.1,18.1,0.8,27.2c-0.6,5-3.9,10.8-9.3,11.5c-14.8,1.1-29.8,0.3-44.6,0.5c-138.3,0-276.7-0.1-415.1,0.1
		c-5.1,0.2-10.4-3.9-10.9-9c-1.5-11.1-2.8-23,1.3-33.7c4-4.9,11.1-4.1,16.6-4.4c32.3-0.3,64.7,0.5,97-0.3
		c-0.8-9.9-4.4-19.2-6.9-28.7c-5.2-19.1-12-37.9-15.1-57.6c18.7-0.5,37.4-0.7,56.1-0.3c4.2-0.5,9,0.8,11.4,4.5
		c4,6.9,6.3,14.5,9.2,21.8c8.2,20.2,15.5,40.7,24.3,60.7c27-0.2,54.1,0.2,81.1,0c3.9,0.4,5.3-3.9,6.4-6.8
		c7.9-23.4,16.9-46.5,24.9-69.9c3.8-11.7,9.3-22.9,11.8-35c-87-1.1-174.1,0.1-261.2-0.6c-4.2,0.4-8.6-1.3-10.9-4.9
		c-4.1-6.9-2.6-15.3-3.2-22.9c0.1-56.7,0-113.4,0-170C53.7,121.7,53,115.8,56.1,111.5 M131.7,156.6c-2.5,17.6-1.1,35.4-1.4,53.1
		c0.3,21.6-1.1,43.2,1.2,64.8c79.5,0.7,158.9-0.1,238.4,0.4c4.1-12.6,1.9-26.2,2.4-39.2c-0.4-24.9,0.8-49.8-0.5-74.6
		c-0.4-4.4-6.3-4.7-9.5-4.4C285.5,156.6,208.6,156.9,131.7,156.6z"/>
</g>
</svg>
